<?xml version="1.0" standalone="no"?>
<!DOCTYPE svg PUBLIC "-//W3C//DTD SVG 20010904//EN"
 "http://www.w3.org/TR/2001/REC-SVG-20010904/DTD/svg10.dtd">
<svg version="1.0" xmlns="http://www.w3.org/2000/svg"
 width="333.000000pt" height="333.000000pt" viewBox="0 0 333.000000 333.000000"
 preserveAspectRatio="xMidYMid meet">
<metadata>
Created by potrace 1.14, written by Peter Selinger 2001-2017
</metadata>
<g transform="translate(0.000000,333.000000) scale(0.100000,-0.100000)"
fill="#000000" stroke="none">
<path d="M1420 3194 c-129 -74 -348 -198 -487 -276 -139 -78 -251 -144 -249
-145 2 -2 49 19 105 47 55 27 103 50 105 50 2 0 101 47 221 105 119 58 218
105 220 105 2 0 72 34 157 75 107 53 160 75 178 71 14 -2 120 -50 235 -106
116 -56 242 -117 280 -135 39 -18 129 -61 200 -95 150 -72 267 -124 245 -109
-22 14 -493 279 -497 279 -2 0 -20 11 -41 24 -31 19 -141 82 -395 225 -21 11
-39 21 -40 20 -1 0 -108 -61 -237 -135z"/>
<path d="M1414 2414 c-27 -26 -60 -64 -74 -84 -14 -20 -44 -61 -68 -91 -77
-97 -188 -273 -328 -519 -45 -80 -89 -153 -98 -162 -12 -13 -33 -18 -76 -19
-33 -1 -64 -3 -70 -4 -5 -1 -16 -3 -24 -4 -23 -2 -24 -48 -2 -88 16 -27 31
-40 58 -48 l37 -10 -33 -75 c-31 -70 -106 -262 -111 -285 -21 -98 -18 -113 27
-139 l31 -19 22 25 c12 14 30 57 40 94 18 72 21 80 53 154 11 25 25 61 32 80
7 19 26 63 42 98 16 34 27 66 24 71 -9 14 53 22 217 27 83 3 155 8 159 10 8 5
13 -20 8 -41 -6 -30 -14 -164 -15 -257 0 -91 3 -110 20 -133 26 -34 77 -66 91
-57 7 4 14 65 17 157 9 238 21 340 40 352 7 5 39 11 72 14 l60 6 -64 1 c-79 2
-73 14 9 17 40 2 60 -1 60 -9 0 -7 4 -6 9 2 4 8 11 13 15 13 18 -3 20 0 6 9
-11 7 -7 10 17 10 44 0 39 23 -7 33 -19 4 -63 8 -98 9 -34 0 -64 4 -66 7 -3 4
9 63 25 131 16 69 31 134 33 145 2 11 15 67 29 125 52 219 58 249 58 323 0 36
-6 68 -15 82 -23 35 -87 95 -101 95 -7 0 -34 -21 -61 -46z m37 -216 c-12 -64
-17 -83 -30 -125 -5 -17 -7 -34 -3 -37 3 -3 0 -6 -7 -6 -7 0 -10 -4 -7 -9 3
-5 0 -28 -8 -52 -11 -34 -34 -131 -51 -209 -1 -3 -5 -21 -10 -40 -5 -19 -9
-39 -10 -45 -8 -85 -18 -115 -38 -116 -98 -5 -287 -6 -287 -1 0 12 65 137 75
144 7 5 7 8 0 8 -6 0 -5 3 1 8 22 15 117 178 118 204 0 14 5 24 9 21 15 -9 52
44 48 70 0 4 3 7 9 7 13 0 41 56 32 65 -4 5 -1 5 6 1 6 -4 12 -3 12 2 0 4 14
24 31 43 17 19 49 55 72 81 22 26 42 46 44 44 3 -2 0 -28 -6 -58z m-111 -2 c0
-2 -8 -10 -17 -17 -16 -13 -17 -12 -4 4 13 16 21 21 21 13z m-90 -130 c0 -2
-8 -10 -17 -17 -16 -13 -17 -12 -4 4 13 16 21 21 21 13z m-51 -78 c-18 -34
-49 -72 -49 -60 0 6 6 17 13 24 8 7 19 23 26 36 6 12 14 22 17 22 2 0 -1 -10
-7 -22z m-49 -82 c0 -2 -8 -10 -17 -17 -16 -13 -17 -12 -4 4 13 16 21 21 21
13z m-30 -51 c0 -1 -10 -10 -22 -21 -17 -14 -20 -15 -9 -2 7 9 10 22 6 27 -3
7 0 8 9 5 9 -3 16 -7 16 -9z m-77 -120 c-3 -9 -8 -14 -10 -11 -3 3 -2 9 2 15
9 16 15 13 8 -4z m-75 -130 c-6 -14 -13 -23 -15 -21 -5 5 15 46 22 46 3 0 -1
-11 -7 -25z"/>
<path d="M2479 2423 c-70 -63 -297 -379 -359 -499 -8 -16 -18 -31 -21 -34 -9
-8 -104 -170 -150 -257 -24 -46 -51 -85 -59 -87 -8 -3 -44 -6 -80 -7 -104 -3
-119 -22 -80 -98 16 -33 26 -40 59 -46 l39 -6 -23 -47 c-56 -117 -126 -310
-139 -383 -5 -32 17 -67 51 -80 35 -13 53 11 82 108 26 87 30 97 60 165 12 26
21 51 21 55 0 5 7 21 15 37 8 15 12 32 9 37 -3 5 0 9 5 9 6 0 11 5 11 12 0 6
7 19 15 28 8 9 16 28 17 43 3 34 14 36 220 43 l171 6 -8 -49 c-23 -151 -23
-333 1 -376 16 -28 86 -69 97 -58 6 6 12 53 12 103 3 161 25 391 40 406 3 3
35 9 73 12 l67 7 -69 2 c-85 1 -81 12 6 16 40 2 66 -1 70 -8 6 -9 8 -8 8 1 0
7 5 10 10 7 6 -3 10 -2 10 4 0 5 -6 12 -12 14 -7 3 5 6 27 6 30 1 36 4 25 11
-8 5 -10 10 -5 11 26 3 -77 20 -131 21 -48 1 -61 4 -61 17 -1 9 27 138 62 286
67 287 74 324 80 422 4 55 1 65 -24 100 -29 41 -77 83 -92 83 -5 0 -27 -17
-50 -37z m35 -195 c-3 -4 -6 -20 -8 -35 -5 -35 -36 -155 -44 -167 -3 -6 -7
-19 -8 -30 -3 -30 -52 -235 -58 -245 -6 -9 -18 -83 -18 -111 -1 -8 -5 -20 -10
-26 -4 -6 -6 -18 -2 -27 3 -8 0 -18 -7 -22 -11 -8 -309 -17 -309 -10 0 2 18
38 41 79 22 42 38 76 36 76 -3 0 4 10 15 23 41 46 121 194 112 209 -3 4 -2 8
3 7 21 -4 31 3 42 27 6 14 8 30 5 36 -4 6 -3 9 2 6 8 -5 28 9 31 22 6 19 22
53 22 46 1 -5 13 9 27 30 15 21 33 43 40 47 7 4 28 28 45 53 23 33 34 43 40
33 4 -7 6 -17 3 -21z m-144 -72 c0 -2 -8 -10 -17 -17 -16 -13 -17 -12 -4 4 13
16 21 21 21 13z m-50 -70 c0 -2 -8 -10 -17 -17 -16 -13 -17 -12 -4 4 13 16 21
21 21 13z m-77 -117 c-10 -17 -25 -36 -33 -42 -11 -9 -10 -4 3 16 10 15 14 27
10 27 -6 0 28 29 35 30 2 0 -5 -14 -15 -31z m-84 -130 c-13 -25 -18 -24 -11 3
4 16 2 19 -8 13 -8 -5 -11 -4 -6 3 4 6 13 9 21 6 11 -5 12 -11 4 -25z m-63
-107 c-17 -16 -18 -16 -5 5 7 12 15 20 18 17 3 -2 -3 -12 -13 -22z m-76 -132
c-6 -11 -13 -20 -16 -20 -2 0 0 9 6 20 6 11 13 20 16 20 2 0 0 -9 -6 -20z"/>
<path d="M2320 525 c-458 -301 -642 -420 -656 -423 -6 -2 -220 124 -475 279
-255 155 -475 288 -489 296 -41 25 23 -24 121 -92 48 -33 165 -114 260 -181
96 -67 265 -184 376 -262 l202 -140 65 46 c142 102 926 684 926 688 0 6 17 17
-330 -211z"/>
</g>
</svg>
